<svg xmlns="http://www.w3.org/2000/svg" width="1920" height="1080"><path d="M-169,-246L12,-233L99,-232Z" fill="#f2f3f3" stroke="#f2f3f3" stroke-width="1.51"/><path d="M99,-232L497,-190L631,-195Z" fill="#ebeeef" stroke="#ebeeef" stroke-width="1.51"/><path d="M99,-232L631,-195L991,-220Z" fill="#e8eded" stroke="#e8eded" stroke-width="1.51"/><path d="M763,1266L264,1298L1127,1329Z" fill="#c5d4d7" stroke="#c5d4d7" stroke-width="1.51"/><path d="M99,-232L991,-220L1285,-253Z" fill="#e6ebeb" stroke="#e6ebeb" stroke-width="1.51"/><path d="M-169,-246L99,-232L1285,-253Z" fill="#ebefef" stroke="#ebefef" stroke-width="1.51"/><path d="M1302,1275L1127,1329L1889,1291Z" fill="#bbcdd0" stroke="#bbcdd0" stroke-width="1.51"/><path d="M1498,-224L1883,-164L2020,-197Z" fill="#d6e0e2" stroke="#d6e0e2" stroke-width="1.51"/><path d="M1433,-250L1498,-224L2020,-197Z" fill="#d9e2e4" stroke="#d9e2e4" stroke-width="1.51"/><path d="M2011,700L1941,819L2092,901Z" fill="#bdced2" stroke="#bdced2" stroke-width="1.51"/><path d="M2092,901L2051,997L2094,1140Z" fill="#b7cbce" stroke="#b7cbce" stroke-width="1.51"/><path d="M1433,-250L2020,-197L2111,-219Z" fill="#d6e0e2" stroke="#d6e0e2" stroke-width="1.51"/><path d="M2020,-197L2101,-61L2111,-219Z" fill="#d2dddf" stroke="#d2dddf" stroke-width="1.51"/><path d="M1969,42L2035,244L2133,64Z" fill="#ccd9db" stroke="#ccd9db" stroke-width="1.51"/><path d="M2111,-219L2101,-61L2133,64Z" fill="#cfdbdd" stroke="#cfdbdd" stroke-width="1.51"/><path d="M2011,700L2092,901L2137,670Z" fill="#bdcfd2" stroke="#bdcfd2" stroke-width="1.51"/><path d="M2098,412L2058,473L2137,670Z" fill="#c2d2d5" stroke="#c2d2d5" stroke-width="1.51"/><path d="M2058,473L2036,557L2137,670Z" fill="#c1d1d5" stroke="#c1d1d5" stroke-width="1.51"/><path d="M2137,670L2092,901L2139,1201Z" fill="#b9cccf" stroke="#b9cccf" stroke-width="1.51"/><path d="M2092,901L2094,1140L2139,1201Z" fill="#b5cacd" stroke="#b5cacd" stroke-width="1.51"/><path d="M2133,64L2035,244L2154,196Z" fill="#cad8da" stroke="#cad8da" stroke-width="1.51"/><path d="M2035,244L2098,412L2154,196Z" fill="#c8d6d9" stroke="#c8d6d9" stroke-width="1.51"/><path d="M2111,-219L2133,64L2154,196Z" fill="#cddadc" stroke="#cddadc" stroke-width="1.51"/><path d="M2098,412L2137,670L2154,196Z" fill="#c4d3d6" stroke="#c4d3d6" stroke-width="1.51"/><path d="M2137,670L2139,1201L2154,196Z" fill="#becfd2" stroke="#becfd2" stroke-width="1.51"/><path d="M1700,1213L1302,1275L1889,1291Z" fill="#b8cbcf" stroke="#b8cbcf" stroke-width="1.51"/><path d="M2101,-61L1969,42L2133,64Z" fill="#cedadc" stroke="#cedadc" stroke-width="1.51"/><path d="M2036,557L2011,700L2137,670Z" fill="#c0d1d3" stroke="#c0d1d3" stroke-width="1.51"/><path d="M2094,1140L2046,1261L2139,1201Z" fill="#b3c8cc" stroke="#b3c8cc" stroke-width="1.51"/><path d="M1553,1200L1302,1275L1700,1213Z" fill="#bbcdd0" stroke="#bbcdd0" stroke-width="1.51"/><path d="M2051,997L1964,1094L2094,1140Z" fill="#b6cace" stroke="#b6cace" stroke-width="1.51"/><path d="M2035,244L1986,458L2098,412Z" fill="#c6d5d8" stroke="#c6d5d8" stroke-width="1.51"/><path d="M1964,1094L2046,1261L2094,1140Z" fill="#b5c9cd" stroke="#b5c9cd" stroke-width="1.51"/><path d="M2020,-197L1912,-5L2101,-61Z" fill="#d1ddde" stroke="#d1ddde" stroke-width="1.51"/><path d="M1912,-5L1969,42L2101,-61Z" fill="#d0dbde" stroke="#d0dbde" stroke-width="1.51"/><path d="M1986,458L2058,473L2098,412Z" fill="#c4d4d7" stroke="#c4d4d7" stroke-width="1.51"/><path d="M1944,944L2051,997L2092,901Z" fill="#baccd0" stroke="#baccd0" stroke-width="1.51"/><path d="M1941,819L1944,944L2092,901Z" fill="#bcced1" stroke="#bcced1" stroke-width="1.51"/><path d="M1883,-164L1912,-5L2020,-197Z" fill="#d3dee0" stroke="#d3dee0" stroke-width="1.51"/><path d="M1969,42L1849,75L2035,244Z" fill="#cddadc" stroke="#cddadc" stroke-width="1.51"/><path d="M1786,246L1986,458L2035,244Z" fill="#c9d7da" stroke="#c9d7da" stroke-width="1.51"/><path d="M1900,561L2011,700L2036,557Z" fill="#c2d2d5" stroke="#c2d2d5" stroke-width="1.51"/><path d="M1964,1094L1889,1291L2046,1261Z" fill="#b5c9cc" stroke="#b5c9cc" stroke-width="1.51"/><path d="M1986,458L2036,557L2058,473Z" fill="#c4d3d6" stroke="#c4d3d6" stroke-width="1.51"/><path d="M1944,944L1964,1094L2051,997Z" fill="#b9cccf" stroke="#b9cccf" stroke-width="1.51"/><path d="M1786,246L1764,392L1986,458Z" fill="#c9d7d9" stroke="#c9d7d9" stroke-width="1.51"/><path d="M1849,75L1786,246L2035,244Z" fill="#cdd9db" stroke="#cdd9db" stroke-width="1.51"/><path d="M1986,458L1900,561L2036,557Z" fill="#c4d3d6" stroke="#c4d3d6" stroke-width="1.51"/><path d="M1863,720L1941,819L2011,700Z" fill="#bfd0d3" stroke="#bfd0d3" stroke-width="1.51"/><path d="M1900,561L1863,720L2011,700Z" fill="#c2d2d5" stroke="#c2d2d5" stroke-width="1.51"/><path d="M1498,-224L1745,-117L1883,-164Z" fill="#d7e0e2" stroke="#d7e0e2" stroke-width="1.51"/><path d="M1941,819L1886,856L1944,944Z" fill="#bdced2" stroke="#bdced2" stroke-width="1.51"/><path d="M1845,1087L1889,1291L1964,1094Z" fill="#b7cbce" stroke="#b7cbce" stroke-width="1.51"/><path d="M1944,944L1866,949L1964,1094Z" fill="#baccd0" stroke="#baccd0" stroke-width="1.51"/><path d="M1866,949L1845,1087L1964,1094Z" fill="#bacccf" stroke="#bacccf" stroke-width="1.51"/><path d="M1764,392L1900,561L1986,458Z" fill="#c6d5d8" stroke="#c6d5d8" stroke-width="1.51"/><path d="M1912,-5L1849,75L1969,42Z" fill="#d0dcde" stroke="#d0dcde" stroke-width="1.51"/><path d="M1863,720L1886,856L1941,819Z" fill="#bfd0d3" stroke="#bfd0d3" stroke-width="1.51"/><path d="M1886,856L1866,949L1944,944Z" fill="#bcced1" stroke="#bcced1" stroke-width="1.51"/><path d="M1845,1087L1700,1213L1889,1291Z" fill="#b7cace" stroke="#b7cace" stroke-width="1.51"/><path d="M1694,564L1863,720L1900,561Z" fill="#c4d3d6" stroke="#c4d3d6" stroke-width="1.51"/><path d="M1764,392L1694,564L1900,561Z" fill="#c7d5d8" stroke="#c7d5d8" stroke-width="1.51"/><path d="M1761,28L1849,75L1912,-5Z" fill="#d1dcde" stroke="#d1dcde" stroke-width="1.51"/><path d="M1883,-164L1745,-117L1912,-5Z" fill="#d4dee0" stroke="#d4dee0" stroke-width="1.51"/><path d="M1745,-117L1761,28L1912,-5Z" fill="#d3dee0" stroke="#d3dee0" stroke-width="1.51"/><path d="M1694,564L1675,674L1863,720Z" fill="#c4d4d6" stroke="#c4d4d6" stroke-width="1.51"/><path d="M1863,720L1661,829L1886,856Z" fill="#c0d1d4" stroke="#c0d1d4" stroke-width="1.51"/><path d="M1661,829L1866,949L1886,856Z" fill="#bed0d3" stroke="#bed0d3" stroke-width="1.51"/><path d="M1697,61L1786,246L1849,75Z" fill="#d0dbdd" stroke="#d0dbdd" stroke-width="1.51"/><path d="M1675,674L1661,829L1863,720Z" fill="#c2d2d5" stroke="#c2d2d5" stroke-width="1.51"/><path d="M1638,958L1845,1087L1866,949Z" fill="#bcced1" stroke="#bcced1" stroke-width="1.51"/><path d="M1661,829L1638,958L1866,949Z" fill="#bfd0d3" stroke="#bfd0d3" stroke-width="1.51"/><path d="M1645,1127L1700,1213L1845,1087Z" fill="#bacccf" stroke="#bacccf" stroke-width="1.51"/><path d="M1638,958L1645,1127L1845,1087Z" fill="#bccdd1" stroke="#bccdd1" stroke-width="1.51"/><path d="M1761,28L1697,61L1849,75Z" fill="#d1dcdf" stroke="#d1dcdf" stroke-width="1.51"/><path d="M1498,-224L1666,-93L1745,-117Z" fill="#d8e1e3" stroke="#d8e1e3" stroke-width="1.51"/><path d="M1745,-117L1666,-93L1761,28Z" fill="#d4dfe0" stroke="#d4dfe0" stroke-width="1.51"/><path d="M1697,61L1625,180L1786,246Z" fill="#d0dcde" stroke="#d0dcde" stroke-width="1.51"/><path d="M1668,344L1764,392L1786,246Z" fill="#ccd9db" stroke="#ccd9db" stroke-width="1.51"/><path d="M1625,180L1668,344L1786,246Z" fill="#cedadc" stroke="#cedadc" stroke-width="1.51"/><path d="M1668,344L1557,478L1694,564Z" fill="#cad8da" stroke="#cad8da" stroke-width="1.51"/><path d="M1666,-93L1697,61L1761,28Z" fill="#d3dee0" stroke="#d3dee0" stroke-width="1.51"/><path d="M1668,344L1694,564L1764,392Z" fill="#cad7da" stroke="#cad7da" stroke-width="1.51"/><path d="M1638,958L1557,982L1645,1127Z" fill="#bfd0d2" stroke="#bfd0d2" stroke-width="1.51"/><path d="M1625,180L1537,233L1668,344Z" fill="#cfdbdd" stroke="#cfdbdd" stroke-width="1.51"/><path d="M1494,699L1661,829L1675,674Z" fill="#c5d3d6" stroke="#c5d3d6" stroke-width="1.51"/><path d="M1666,-93L1576,39L1697,61Z" fill="#d4dfe1" stroke="#d4dfe1" stroke-width="1.51"/><path d="M1576,39L1625,180L1697,61Z" fill="#d2dddf" stroke="#d2dddf" stroke-width="1.51"/><path d="M1645,1127L1553,1200L1700,1213Z" fill="#bacdd0" stroke="#bacdd0" stroke-width="1.51"/><path d="M1557,478L1494,699L1675,674Z" fill="#c8d6d8" stroke="#c8d6d8" stroke-width="1.51"/><path d="M1557,478L1675,674L1694,564Z" fill="#c8d6d8" stroke="#c8d6d8" stroke-width="1.51"/><path d="M1524,844L1638,958L1661,829Z" fill="#c1d1d5" stroke="#c1d1d5" stroke-width="1.51"/><path d="M1494,699L1524,844L1661,829Z" fill="#c4d3d6" stroke="#c4d3d6" stroke-width="1.51"/><path d="M1518,423L1557,478L1668,344Z" fill="#ccd9db" stroke="#ccd9db" stroke-width="1.51"/><path d="M1477,-31L1576,39L1666,-93Z" fill="#d6e0e1" stroke="#d6e0e1" stroke-width="1.51"/><path d="M1498,-224L1477,-31L1666,-93Z" fill="#d8e2e3" stroke="#d8e2e3" stroke-width="1.51"/><path d="M1537,233L1518,423L1668,344Z" fill="#cedadc" stroke="#cedadc" stroke-width="1.51"/><path d="M1557,982L1543,1152L1645,1127Z" fill="#bdcfd2" stroke="#bdcfd2" stroke-width="1.51"/><path d="M1524,844L1557,982L1638,958Z" fill="#c1d1d4" stroke="#c1d1d4" stroke-width="1.51"/><path d="M1543,1152L1553,1200L1645,1127Z" fill="#bbcdd1" stroke="#bbcdd1" stroke-width="1.51"/><path d="M1457,1073L1543,1152L1557,982Z" fill="#becfd2" stroke="#becfd2" stroke-width="1.51"/><path d="M1576,39L1537,233L1625,180Z" fill="#d2dddf" stroke="#d2dddf" stroke-width="1.51"/><path d="M1422,-87L1477,-31L1498,-224Z" fill="#dae2e4" stroke="#dae2e4" stroke-width="1.51"/><path d="M1417,426L1518,423L1537,233Z" fill="#cedbdd" stroke="#cedbdd" stroke-width="1.51"/><path d="M1351,1204L1302,1275L1553,1200Z" fill="#bdced1" stroke="#bdced1" stroke-width="1.51"/><path d="M1444,687L1494,699L1557,478Z" fill="#c9d7d9" stroke="#c9d7d9" stroke-width="1.51"/><path d="M1365,535L1444,687L1557,478Z" fill="#cad7da" stroke="#cad7da" stroke-width="1.51"/><path d="M1392,66L1537,233L1576,39Z" fill="#d4dee0" stroke="#d4dee0" stroke-width="1.51"/><path d="M1477,-31L1392,66L1576,39Z" fill="#d6e0e2" stroke="#d6e0e2" stroke-width="1.51"/><path d="M99,-232L179,-212L497,-190Z" fill="#edf0f0" stroke="#edf0f0" stroke-width="1.51"/><path d="M1342,235L1417,426L1537,233Z" fill="#d1dcde" stroke="#d1dcde" stroke-width="1.51"/><path d="M1524,844L1405,1009L1557,982Z" fill="#c1d2d5" stroke="#c1d2d5" stroke-width="1.51"/><path d="M1405,1009L1457,1073L1557,982Z" fill="#c0d1d4" stroke="#c0d1d4" stroke-width="1.51"/><path d="M1518,423L1417,426L1557,478Z" fill="#cdd9dc" stroke="#cdd9dc" stroke-width="1.51"/><path d="M1417,426L1365,535L1557,478Z" fill="#ccd9db" stroke="#ccd9db" stroke-width="1.51"/><path d="M1392,66L1342,235L1537,233Z" fill="#d3dee0" stroke="#d3dee0" stroke-width="1.51"/><path d="M1543,1152L1351,1204L1553,1200Z" fill="#bcced1" stroke="#bcced1" stroke-width="1.51"/><path d="M1494,699L1361,819L1524,844Z" fill="#c5d4d7" stroke="#c5d4d7" stroke-width="1.51"/><path d="M1457,1073L1351,1204L1543,1152Z" fill="#becfd2" stroke="#becfd2" stroke-width="1.51"/><path d="M1444,687L1361,819L1494,699Z" fill="#c7d5d8" stroke="#c7d5d8" stroke-width="1.51"/><path d="M1361,819L1405,1009L1524,844Z" fill="#c4d4d6" stroke="#c4d4d6" stroke-width="1.51"/><path d="M1433,-250L1422,-87L1498,-224Z" fill="#dbe4e5" stroke="#dbe4e5" stroke-width="1.51"/><path d="M1361,819L1291,906L1405,1009Z" fill="#c4d4d6" stroke="#c4d4d6" stroke-width="1.51"/><path d="M1365,535L1319,623L1444,687Z" fill="#cad8da" stroke="#cad8da" stroke-width="1.51"/><path d="M1422,-87L1392,66L1477,-31Z" fill="#d8e1e3" stroke="#d8e1e3" stroke-width="1.51"/><path d="M1285,-253L1422,-87L1433,-250Z" fill="#dce4e6" stroke="#dce4e6" stroke-width="1.51"/><path d="M1405,1009L1290,1104L1457,1073Z" fill="#c0d1d4" stroke="#c0d1d4" stroke-width="1.51"/><path d="M1290,1104L1351,1204L1457,1073Z" fill="#bfd0d3" stroke="#bfd0d3" stroke-width="1.51"/><path d="M1319,623L1266,778L1361,819Z" fill="#c8d6d9" stroke="#c8d6d9" stroke-width="1.51"/><path d="M1342,235L1283,245L1417,426Z" fill="#d2dddf" stroke="#d2dddf" stroke-width="1.51"/><path d="M1256,-22L1392,66L1422,-87Z" fill="#d9e1e3" stroke="#d9e1e3" stroke-width="1.51"/><path d="M1319,623L1361,819L1444,687Z" fill="#c8d6d9" stroke="#c8d6d9" stroke-width="1.51"/><path d="M1283,245L1194,391L1417,426Z" fill="#d2dddf" stroke="#d2dddf" stroke-width="1.51"/><path d="M1285,-253L1256,-22L1422,-87Z" fill="#dce4e5" stroke="#dce4e5" stroke-width="1.51"/><path d="M1194,391L1365,535L1417,426Z" fill="#cfdbdd" stroke="#cfdbdd" stroke-width="1.51"/><path d="M1283,245L1342,235L1392,66Z" fill="#d4dfe0" stroke="#d4dfe0" stroke-width="1.51"/><path d="M1200,53L1283,245L1392,66Z" fill="#d7e0e2" stroke="#d7e0e2" stroke-width="1.51"/><path d="M1291,906L1290,1104L1405,1009Z" fill="#c3d2d5" stroke="#c3d2d5" stroke-width="1.51"/><path d="M1256,-22L1200,53L1392,66Z" fill="#d9e2e3" stroke="#d9e2e3" stroke-width="1.51"/><path d="M1134,-163L1256,-22L1285,-253Z" fill="#dee5e6" stroke="#dee5e6" stroke-width="1.51"/><path d="M1186,592L1319,623L1365,535Z" fill="#ccd9db" stroke="#ccd9db" stroke-width="1.51"/><path d="M1194,391L1186,592L1365,535Z" fill="#cfdbdd" stroke="#cfdbdd" stroke-width="1.51"/><path d="M1266,778L1291,906L1361,819Z" fill="#c6d5d8" stroke="#c6d5d8" stroke-width="1.51"/><path d="M1290,1104L1302,1275L1351,1204Z" fill="#becfd3" stroke="#becfd3" stroke-width="1.51"/><path d="M1159,344L1194,391L1283,245Z" fill="#d3dee0" stroke="#d3dee0" stroke-width="1.51"/><path d="M1163,894L1106,931L1290,1104Z" fill="#c5d4d7" stroke="#c5d4d7" stroke-width="1.51"/><path d="M1163,894L1290,1104L1291,906Z" fill="#c4d4d6" stroke="#c4d4d6" stroke-width="1.51"/><path d="M1290,1104L1086,1181L1302,1275Z" fill="#c0d1d3" stroke="#c0d1d3" stroke-width="1.51"/><path d="M1186,592L1266,778L1319,623Z" fill="#cbd8db" stroke="#cbd8db" stroke-width="1.51"/><path d="M1200,53L1109,230L1283,245Z" fill="#d7e1e2" stroke="#d7e1e2" stroke-width="1.51"/><path d="M991,-220L1134,-163L1285,-253Z" fill="#e0e7e8" stroke="#e0e7e8" stroke-width="1.51"/><path d="M1266,778L1163,894L1291,906Z" fill="#c7d6d8" stroke="#c7d6d8" stroke-width="1.51"/><path d="M1086,1181L1127,1329L1302,1275Z" fill="#bfd0d3" stroke="#bfd0d3" stroke-width="1.51"/><path d="M1106,931L1086,1181L1290,1104Z" fill="#c3d3d6" stroke="#c3d3d6" stroke-width="1.51"/><path d="M1186,592L1064,737L1266,778Z" fill="#ccd8db" stroke="#ccd8db" stroke-width="1.51"/><path d="M1086,502L1186,592L1194,391Z" fill="#d0dcde" stroke="#d0dcde" stroke-width="1.51"/><path d="M1109,230L1159,344L1283,245Z" fill="#d5dfe1" stroke="#d5dfe1" stroke-width="1.51"/><path d="M1134,-163L1090,2L1256,-22Z" fill="#dde4e6" stroke="#dde4e6" stroke-width="1.51"/><path d="M1064,737L1163,894L1266,778Z" fill="#c9d7da" stroke="#c9d7da" stroke-width="1.51"/><path d="M1090,2L1200,53L1256,-22Z" fill="#dbe3e4" stroke="#dbe3e4" stroke-width="1.51"/><path d="M1073,64L1027,136L1109,230Z" fill="#d9e2e4" stroke="#d9e2e4" stroke-width="1.51"/><path d="M1031,582L1064,737L1186,592Z" fill="#cedbdd" stroke="#cedbdd" stroke-width="1.51"/><path d="M1073,64L1109,230L1200,53Z" fill="#d9e2e3" stroke="#d9e2e3" stroke-width="1.51"/><path d="M1090,2L1073,64L1200,53Z" fill="#dbe3e4" stroke="#dbe3e4" stroke-width="1.51"/><path d="M945,1072L1086,1181L1106,931Z" fill="#c5d4d7" stroke="#c5d4d7" stroke-width="1.51"/><path d="M1159,344L1086,502L1194,391Z" fill="#d2dddf" stroke="#d2dddf" stroke-width="1.51"/><path d="M1064,737L1017,897L1163,894Z" fill="#cad7da" stroke="#cad7da" stroke-width="1.51"/><path d="M1086,502L1031,582L1186,592Z" fill="#cfdbde" stroke="#cfdbde" stroke-width="1.51"/><path d="M948,304L1086,502L1159,344Z" fill="#d4dee0" stroke="#d4dee0" stroke-width="1.51"/><path d="M1017,897L1106,931L1163,894Z" fill="#c8d6d9" stroke="#c8d6d9" stroke-width="1.51"/><path d="M1109,230L948,304L1159,344Z" fill="#d6e0e1" stroke="#d6e0e1" stroke-width="1.51"/><path d="M472,1232L264,1298L763,1266Z" fill="#c9d6d9" stroke="#c9d6d9" stroke-width="1.51"/><path d="M1000,755L1017,897L1064,737Z" fill="#cbd8db" stroke="#cbd8db" stroke-width="1.51"/><path d="M948,304L919,453L1086,502Z" fill="#d5dfe1" stroke="#d5dfe1" stroke-width="1.51"/><path d="M1017,897L945,1072L1106,931Z" fill="#c7d6d8" stroke="#c7d6d8" stroke-width="1.51"/><path d="M1086,1181L912,1199L1127,1329Z" fill="#c1d2d5" stroke="#c1d2d5" stroke-width="1.51"/><path d="M912,1199L763,1266L1127,1329Z" fill="#c2d2d5" stroke="#c2d2d5" stroke-width="1.51"/><path d="M991,-220L1090,2L1134,-163Z" fill="#dfe6e7" stroke="#dfe6e7" stroke-width="1.51"/><path d="M991,-220L888,31L1090,2Z" fill="#dfe6e7" stroke="#dfe6e7" stroke-width="1.51"/><path d="M1027,136L948,304L1109,230Z" fill="#d8e1e3" stroke="#d8e1e3" stroke-width="1.51"/><path d="M1031,582L1000,755L1064,737Z" fill="#cedadc" stroke="#cedadc" stroke-width="1.51"/><path d="M945,1072L912,1199L1086,1181Z" fill="#c4d4d6" stroke="#c4d4d6" stroke-width="1.51"/><path d="M888,31L1073,64L1090,2Z" fill="#dde4e6" stroke="#dde4e6" stroke-width="1.51"/><path d="M919,453L1031,582L1086,502Z" fill="#d2dddf" stroke="#d2dddf" stroke-width="1.51"/><path d="M888,31L1027,136L1073,64Z" fill="#dce4e5" stroke="#dce4e5" stroke-width="1.51"/><path d="M796,-127L888,31L991,-220Z" fill="#e1e8e9" stroke="#e1e8e9" stroke-width="1.51"/><path d="M889,933L945,1072L1017,897Z" fill="#c9d6d9" stroke="#c9d6d9" stroke-width="1.51"/><path d="M631,-195L796,-127L991,-220Z" fill="#e5eaeb" stroke="#e5eaeb" stroke-width="1.51"/><path d="M1000,755L889,933L1017,897Z" fill="#cbd8da" stroke="#cbd8da" stroke-width="1.51"/><path d="M817,140L948,304L1027,136Z" fill="#dae3e4" stroke="#dae3e4" stroke-width="1.51"/><path d="M817,672L1000,755L1031,582Z" fill="#d0dbdd" stroke="#d0dbdd" stroke-width="1.51"/><path d="M919,453L817,672L1031,582Z" fill="#d2dddf" stroke="#d2dddf" stroke-width="1.51"/><path d="M888,31L817,140L1027,136Z" fill="#dde4e6" stroke="#dde4e6" stroke-width="1.51"/><path d="M811,860L889,933L1000,755Z" fill="#ccd9db" stroke="#ccd9db" stroke-width="1.51"/><path d="M889,933L859,998L945,1072Z" fill="#c9d7d9" stroke="#c9d7d9" stroke-width="1.51"/><path d="M817,140L885,312L948,304Z" fill="#d9e2e4" stroke="#d9e2e4" stroke-width="1.51"/><path d="M885,312L919,453L948,304Z" fill="#d6e0e2" stroke="#d6e0e2" stroke-width="1.51"/><path d="M817,672L811,860L1000,755Z" fill="#cedadd" stroke="#cedadd" stroke-width="1.51"/><path d="M698,1238L472,1232L763,1266Z" fill="#c7d6d8" stroke="#c7d6d8" stroke-width="1.51"/><path d="M796,-127L780,-36L888,31Z" fill="#e1e7e9" stroke="#e1e7e9" stroke-width="1.51"/><path d="M885,312L830,332L919,453Z" fill="#d7e1e2" stroke="#d7e1e2" stroke-width="1.51"/><path d="M748,511L817,672L919,453Z" fill="#d4dee0" stroke="#d4dee0" stroke-width="1.51"/><path d="M772,1180L912,1199L945,1072Z" fill="#c6d5d7" stroke="#c6d5d7" stroke-width="1.51"/><path d="M859,998L772,1180L945,1072Z" fill="#c7d6d8" stroke="#c7d6d8" stroke-width="1.51"/><path d="M817,140L830,332L885,312Z" fill="#dae3e4" stroke="#dae3e4" stroke-width="1.51"/><path d="M830,332L748,511L919,453Z" fill="#d7e0e2" stroke="#d7e0e2" stroke-width="1.51"/><path d="M772,1180L763,1266L912,1199Z" fill="#c5d4d7" stroke="#c5d4d7" stroke-width="1.51"/><path d="M817,140L711,192L830,332Z" fill="#dbe4e5" stroke="#dbe4e5" stroke-width="1.51"/><path d="M780,-36L817,140L888,31Z" fill="#dfe6e7" stroke="#dfe6e7" stroke-width="1.51"/><path d="M811,860L859,998L889,933Z" fill="#cbd8da" stroke="#cbd8da" stroke-width="1.51"/><path d="M636,1024L772,1180L859,998Z" fill="#c9d7da" stroke="#c9d7da" stroke-width="1.51"/><path d="M811,860L654,898L859,998Z" fill="#ccd9dc" stroke="#ccd9dc" stroke-width="1.51"/><path d="M654,898L636,1024L859,998Z" fill="#ccd9db" stroke="#ccd9db" stroke-width="1.51"/><path d="M179,-212L378,-173L497,-190Z" fill="#ebeeef" stroke="#ebeeef" stroke-width="1.51"/><path d="M636,1024L635,1144L772,1180Z" fill="#c9d7d9" stroke="#c9d7d9" stroke-width="1.51"/><path d="M686,649L654,898L811,860Z" fill="#d0dbde" stroke="#d0dbde" stroke-width="1.51"/><path d="M686,649L811,860L817,672Z" fill="#d1dcde" stroke="#d1dcde" stroke-width="1.51"/><path d="M748,511L686,649L817,672Z" fill="#d3dee0" stroke="#d3dee0" stroke-width="1.51"/><path d="M780,-36L656,17L817,140Z" fill="#e0e7e8" stroke="#e0e7e8" stroke-width="1.51"/><path d="M714,506L748,511L830,332Z" fill="#d7e0e2" stroke="#d7e0e2" stroke-width="1.51"/><path d="M606,356L714,506L830,332Z" fill="#d9e2e3" stroke="#d9e2e3" stroke-width="1.51"/><path d="M711,192L606,356L830,332Z" fill="#dbe3e5" stroke="#dbe3e5" stroke-width="1.51"/><path d="M570,759L654,898L686,649Z" fill="#d2dddf" stroke="#d2dddf" stroke-width="1.51"/><path d="M656,17L711,192L817,140Z" fill="#dfe6e7" stroke="#dfe6e7" stroke-width="1.51"/><path d="M631,-195L780,-36L796,-127Z" fill="#e4eaea" stroke="#e4eaea" stroke-width="1.51"/><path d="M714,506L686,649L748,511Z" fill="#d5dfe1" stroke="#d5dfe1" stroke-width="1.51"/><path d="M698,1238L763,1266L772,1180Z" fill="#c6d5d7" stroke="#c6d5d7" stroke-width="1.51"/><path d="M631,-195L656,17L780,-36Z" fill="#e4e9ea" stroke="#e4e9ea" stroke-width="1.51"/><path d="M635,1144L698,1238L772,1180Z" fill="#c8d6d8" stroke="#c8d6d8" stroke-width="1.51"/><path d="M656,17L610,173L711,192Z" fill="#e0e6e8" stroke="#e0e6e8" stroke-width="1.51"/><path d="M582,217L606,356L711,192Z" fill="#dde5e6" stroke="#dde5e6" stroke-width="1.51"/><path d="M582,217L567,324L606,356Z" fill="#dde5e6" stroke="#dde5e6" stroke-width="1.51"/><path d="M631,-195L529,-20L656,17Z" fill="#e4eaeb" stroke="#e4eaeb" stroke-width="1.51"/><path d="M575,660L570,759L686,649Z" fill="#d4dee0" stroke="#d4dee0" stroke-width="1.51"/><path d="M610,173L582,217L711,192Z" fill="#dfe6e7" stroke="#dfe6e7" stroke-width="1.51"/><path d="M606,356L488,607L714,506Z" fill="#d9e1e3" stroke="#d9e1e3" stroke-width="1.51"/><path d="M488,607L575,660L714,506Z" fill="#d6e0e2" stroke="#d6e0e2" stroke-width="1.51"/><path d="M575,660L686,649L714,506Z" fill="#d5dfe1" stroke="#d5dfe1" stroke-width="1.51"/><path d="M635,1144L472,1232L698,1238Z" fill="#c9d6d9" stroke="#c9d6d9" stroke-width="1.51"/><path d="M431,545L488,607L606,356Z" fill="#d9e2e4" stroke="#d9e2e4" stroke-width="1.51"/><path d="M497,-190L529,-20L631,-195Z" fill="#e7ebec" stroke="#e7ebec" stroke-width="1.51"/><path d="M538,1084L635,1144L636,1024Z" fill="#cbd8db" stroke="#cbd8db" stroke-width="1.51"/><path d="M528,973L636,1024L654,898Z" fill="#cddadc" stroke="#cddadc" stroke-width="1.51"/><path d="M570,759L528,973L654,898Z" fill="#d0dcde" stroke="#d0dcde" stroke-width="1.51"/><path d="M587,177L610,173L656,17Z" fill="#e0e7e8" stroke="#e0e7e8" stroke-width="1.51"/><path d="M529,-20L587,177L656,17Z" fill="#e2e8e9" stroke="#e2e8e9" stroke-width="1.51"/><path d="M529,-20L445,42L587,177Z" fill="#e3e9ea" stroke="#e3e9ea" stroke-width="1.51"/><path d="M538,1084L472,1232L635,1144Z" fill="#cad8da" stroke="#cad8da" stroke-width="1.51"/><path d="M528,973L538,1084L636,1024Z" fill="#cdd9dc" stroke="#cdd9dc" stroke-width="1.51"/><path d="M567,324L431,545L606,356Z" fill="#dbe3e5" stroke="#dbe3e5" stroke-width="1.51"/><path d="M-82,1237L-174,1253L264,1298Z" fill="#d0dbde" stroke="#d0dbde" stroke-width="1.51"/><path d="M587,177L582,217L610,173Z" fill="#dfe6e7" stroke="#dfe6e7" stroke-width="1.51"/><path d="M338,402L431,545L567,324Z" fill="#dce4e6" stroke="#dce4e6" stroke-width="1.51"/><path d="M341,779L528,973L570,759Z" fill="#d2dddf" stroke="#d2dddf" stroke-width="1.51"/><path d="M355,199L567,324L582,217Z" fill="#e0e6e8" stroke="#e0e6e8" stroke-width="1.51"/><path d="M355,199L582,217L587,177Z" fill="#e1e7e9" stroke="#e1e7e9" stroke-width="1.51"/><path d="M445,42L355,199L587,177Z" fill="#e2e8e9" stroke="#e2e8e9" stroke-width="1.51"/><path d="M341,779L368,970L528,973Z" fill="#d2dddf" stroke="#d2dddf" stroke-width="1.51"/><path d="M488,607L570,759L575,660Z" fill="#d5dfe1" stroke="#d5dfe1" stroke-width="1.51"/><path d="M488,607L401,636L570,759Z" fill="#d6e0e2" stroke="#d6e0e2" stroke-width="1.51"/><path d="M401,636L341,779L570,759Z" fill="#d5e0e1" stroke="#d5e0e1" stroke-width="1.51"/><path d="M355,199L338,402L567,324Z" fill="#dfe6e7" stroke="#dfe6e7" stroke-width="1.51"/><path d="M324,-87L445,42L529,-20Z" fill="#e6ebec" stroke="#e6ebec" stroke-width="1.51"/><path d="M378,-173L324,-87L529,-20Z" fill="#e8eced" stroke="#e8eced" stroke-width="1.51"/><path d="M497,-190L378,-173L529,-20Z" fill="#e8eced" stroke="#e8eced" stroke-width="1.51"/><path d="M368,1133L472,1232L538,1084Z" fill="#ccd9db" stroke="#ccd9db" stroke-width="1.51"/><path d="M528,973L368,970L538,1084Z" fill="#cedbdd" stroke="#cedbdd" stroke-width="1.51"/><path d="M368,970L368,1133L538,1084Z" fill="#cedadd" stroke="#cedadd" stroke-width="1.51"/><path d="M308,1237L264,1298L472,1232Z" fill="#cbd8db" stroke="#cbd8db" stroke-width="1.51"/><path d="M431,545L401,636L488,607Z" fill="#d8e2e3" stroke="#d8e2e3" stroke-width="1.51"/><path d="M341,779L282,885L368,970Z" fill="#d3dee0" stroke="#d3dee0" stroke-width="1.51"/><path d="M368,1133L308,1237L472,1232Z" fill="#ccd9db" stroke="#ccd9db" stroke-width="1.51"/><path d="M238,77L355,199L445,42Z" fill="#e5eaeb" stroke="#e5eaeb" stroke-width="1.51"/><path d="M324,-87L238,77L445,42Z" fill="#e7ecec" stroke="#e7ecec" stroke-width="1.51"/><path d="M276,604L401,636L431,545Z" fill="#d9e2e4" stroke="#d9e2e4" stroke-width="1.51"/><path d="M338,402L276,604L431,545Z" fill="#dbe3e5" stroke="#dbe3e5" stroke-width="1.51"/><path d="M239,209L338,402L355,199Z" fill="#e1e8e9" stroke="#e1e8e9" stroke-width="1.51"/><path d="M231,1137L368,1133L368,970Z" fill="#cfdbdd" stroke="#cfdbdd" stroke-width="1.51"/><path d="M188,1036L231,1137L368,970Z" fill="#d1dcde" stroke="#d1dcde" stroke-width="1.51"/><path d="M276,604L341,779L401,636Z" fill="#d8e1e3" stroke="#d8e1e3" stroke-width="1.51"/><path d="M277,-91L238,77L324,-87Z" fill="#e9edee" stroke="#e9edee" stroke-width="1.51"/><path d="M182,448L276,604L338,402Z" fill="#dde5e6" stroke="#dde5e6" stroke-width="1.51"/><path d="M276,604L207,711L341,779Z" fill="#d8e1e3" stroke="#d8e1e3" stroke-width="1.51"/><path d="M277,-91L324,-87L378,-173Z" fill="#eaeeee" stroke="#eaeeee" stroke-width="1.51"/><path d="M179,-212L277,-91L378,-173Z" fill="#ecefef" stroke="#ecefef" stroke-width="1.51"/><path d="M40,1213L-82,1237L264,1298Z" fill="#cfdbdd" stroke="#cfdbdd" stroke-width="1.51"/><path d="M238,77L239,209L355,199Z" fill="#e4eaeb" stroke="#e4eaeb" stroke-width="1.51"/><path d="M231,1137L308,1237L368,1133Z" fill="#cddadc" stroke="#cddadc" stroke-width="1.51"/><path d="M282,885L188,1036L368,970Z" fill="#d2dddf" stroke="#d2dddf" stroke-width="1.51"/><path d="M239,209L182,448L338,402Z" fill="#e1e7e8" stroke="#e1e7e8" stroke-width="1.51"/><path d="M207,711L282,885L341,779Z" fill="#d6e0e2" stroke="#d6e0e2" stroke-width="1.51"/><path d="M182,448L136,549L276,604Z" fill="#dde5e6" stroke="#dde5e6" stroke-width="1.51"/><path d="M231,1137L264,1298L308,1237Z" fill="#cdd9dc" stroke="#cdd9dc" stroke-width="1.51"/><path d="M72,187L182,448L239,209Z" fill="#e3e9ea" stroke="#e3e9ea" stroke-width="1.51"/><path d="M231,1137L84,1164L264,1298Z" fill="#cedbdd" stroke="#cedbdd" stroke-width="1.51"/><path d="M144,641L207,711L276,604Z" fill="#dae3e4" stroke="#dae3e4" stroke-width="1.51"/><path d="M107,25L238,77L277,-91Z" fill="#e9edee" stroke="#e9edee" stroke-width="1.51"/><path d="M84,918L188,1036L282,885Z" fill="#d4dfe1" stroke="#d4dfe1" stroke-width="1.51"/><path d="M207,711L73,857L282,885Z" fill="#d7e1e2" stroke="#d7e1e2" stroke-width="1.51"/><path d="M73,857L84,918L282,885Z" fill="#d6e0e2" stroke="#d6e0e2" stroke-width="1.51"/><path d="M136,549L144,641L276,604Z" fill="#dce4e6" stroke="#dce4e6" stroke-width="1.51"/><path d="M179,-212L107,25L277,-91Z" fill="#ecefef" stroke="#ecefef" stroke-width="1.51"/><path d="M238,77L126,160L239,209Z" fill="#e6eaeb" stroke="#e6eaeb" stroke-width="1.51"/><path d="M84,1164L40,1213L264,1298Z" fill="#cfdbdd" stroke="#cfdbdd" stroke-width="1.51"/><path d="M72,187L18,448L182,448Z" fill="#e2e9e9" stroke="#e2e9e9" stroke-width="1.51"/><path d="M126,160L72,187L239,209Z" fill="#e6ebeb" stroke="#e6ebeb" stroke-width="1.51"/><path d="M99,-232L107,25L179,-212Z" fill="#edf0f1" stroke="#edf0f1" stroke-width="1.51"/><path d="M107,25L126,160L238,77Z" fill="#e7eced" stroke="#e7eced" stroke-width="1.51"/><path d="M188,1036L84,1164L231,1137Z" fill="#d1dcde" stroke="#d1dcde" stroke-width="1.51"/><path d="M144,641L12,803L207,711Z" fill="#dae3e4" stroke="#dae3e4" stroke-width="1.51"/><path d="M12,803L73,857L207,711Z" fill="#d9e2e3" stroke="#d9e2e3" stroke-width="1.51"/><path d="M99,-232L12,-233L107,25Z" fill="#eef1f1" stroke="#eef1f1" stroke-width="1.51"/><path d="M84,918L2,1061L188,1036Z" fill="#d4dfe0" stroke="#d4dfe0" stroke-width="1.51"/><path d="M2,1061L84,1164L188,1036Z" fill="#d2dedf" stroke="#d2dedf" stroke-width="1.51"/><path d="M18,448L136,549L182,448Z" fill="#e0e6e8" stroke="#e0e6e8" stroke-width="1.51"/><path d="M12,-233L-118,19L107,25Z" fill="#eef0f0" stroke="#eef0f0" stroke-width="1.51"/><path d="M107,25L-2,121L126,160Z" fill="#e9edee" stroke="#e9edee" stroke-width="1.51"/><path d="M18,448L-15,504L136,549Z" fill="#e0e7e8" stroke="#e0e7e8" stroke-width="1.51"/><path d="M-109,673L12,803L144,641Z" fill="#dce4e6" stroke="#dce4e6" stroke-width="1.51"/><path d="M136,549L-15,504L144,641Z" fill="#dee6e7" stroke="#dee6e7" stroke-width="1.51"/><path d="M-15,504L-109,673L144,641Z" fill="#dee5e7" stroke="#dee5e7" stroke-width="1.51"/><path d="M-64,180L18,448L72,187Z" fill="#e6ebec" stroke="#e6ebec" stroke-width="1.51"/><path d="M-2,121L72,187L126,160Z" fill="#e7eced" stroke="#e7eced" stroke-width="1.51"/><path d="M-64,180L-161,298L18,448Z" fill="#e6ebec" stroke="#e6ebec" stroke-width="1.51"/><path d="M-118,19L-2,121L107,25Z" fill="#ebeeef" stroke="#ebeeef" stroke-width="1.51"/><path d="M-161,298L-117,425L18,448Z" fill="#e5eaeb" stroke="#e5eaeb" stroke-width="1.51"/><path d="M-74,937L2,1061L84,918Z" fill="#d6e0e2" stroke="#d6e0e2" stroke-width="1.51"/><path d="M2,1061L40,1213L84,1164Z" fill="#d2dddf" stroke="#d2dddf" stroke-width="1.51"/><path d="M73,857L-74,937L84,918Z" fill="#d7e1e2" stroke="#d7e1e2" stroke-width="1.51"/><path d="M12,803L-74,937L73,857Z" fill="#d9e1e3" stroke="#d9e1e3" stroke-width="1.51"/><path d="M-2,121L-64,180L72,187Z" fill="#e8eced" stroke="#e8eced" stroke-width="1.51"/><path d="M-169,-246L-118,19L12,-233Z" fill="#f1f3f3" stroke="#f1f3f3" stroke-width="1.51"/><path d="M2,1061L-130,1156L40,1213Z" fill="#d3dedf" stroke="#d3dedf" stroke-width="1.51"/><path d="M-130,1156L-82,1237L40,1213Z" fill="#d2dddf" stroke="#d2dddf" stroke-width="1.51"/><path d="M-109,673L-160,724L12,803Z" fill="#dde4e6" stroke="#dde4e6" stroke-width="1.51"/><path d="M-117,425L-15,504L18,448Z" fill="#e2e8ea" stroke="#e2e8ea" stroke-width="1.51"/><path d="M-200,837L-74,937L12,803Z" fill="#dae3e4" stroke="#dae3e4" stroke-width="1.51"/><path d="M-160,724L-200,837L12,803Z" fill="#dce4e5" stroke="#dce4e5" stroke-width="1.51"/><path d="M-74,937L-130,1156L2,1061Z" fill="#d6e0e1" stroke="#d6e0e1" stroke-width="1.51"/><path d="M-118,19L-170,85L-64,180Z" fill="#ebefef" stroke="#ebefef" stroke-width="1.51"/><path d="M-184,469L-109,673L-15,504Z" fill="#e1e8e9" stroke="#e1e8e9" stroke-width="1.51"/><path d="M-118,19L-64,180L-2,121Z" fill="#ebeeef" stroke="#ebeeef" stroke-width="1.51"/><path d="M-117,425L-184,469L-15,504Z" fill="#e3e9ea" stroke="#e3e9ea" stroke-width="1.51"/><path d="M-169,-246L-268,25L-118,19Z" fill="#f0f2f2" stroke="#f0f2f2" stroke-width="1.51"/><path d="M-200,837L-204,946L-74,937Z" fill="#dae3e4" stroke="#dae3e4" stroke-width="1.51"/><path d="M-204,946L-130,1156L-74,937Z" fill="#d7e1e2" stroke="#d7e1e2" stroke-width="1.51"/><path d="M-170,85L-161,298L-64,180Z" fill="#eaedee" stroke="#eaedee" stroke-width="1.51"/><path d="M-130,1156L-174,1253L-82,1237Z" fill="#d3dedf" stroke="#d3dedf" stroke-width="1.51"/><path d="M-260,446L-184,469L-161,298Z" fill="#e6ebec" stroke="#e6ebec" stroke-width="1.51"/><path d="M-184,469L-260,446L-160,724Z" fill="#e3e9ea" stroke="#e3e9ea" stroke-width="1.51"/><path d="M-161,298L-184,469L-117,425Z" fill="#e6ebeb" stroke="#e6ebeb" stroke-width="1.51"/><path d="M-184,469L-160,724L-109,673Z" fill="#e0e7e8" stroke="#e0e7e8" stroke-width="1.51"/><path d="M-268,25L-170,85L-118,19Z" fill="#edf0f0" stroke="#edf0f0" stroke-width="1.51"/><path d="M-170,85L-268,25L-161,298Z" fill="#eceff0" stroke="#eceff0" stroke-width="1.51"/><path d="M-204,946L-174,1253L-130,1156Z" fill="#d6e0e1" stroke="#d6e0e1" stroke-width="1.51"/><path d="M-268,25L-260,446L-161,298Z" fill="#eaedee" stroke="#eaedee" stroke-width="1.51"/><path d="M-260,446L-200,837L-160,724Z" fill="#e0e7e8" stroke="#e0e7e8" stroke-width="1.51"/><path d="M-260,446L-204,946L-200,837Z" fill="#dfe6e7" stroke="#dfe6e7" stroke-width="1.51"/></svg>